<svg xmlns="http://www.w3.org/2000/svg" width="400" height="354.667" version="1.0" viewBox="0 0 300 266"><path d="M63.9 16.6c-2.2 2.3-2.4 3.5-2.7 13.9-.3 9 0 11.9 1.3 14.4 2.8 5.4 9.2 6.4 13.5 2.1 1.8-1.8 2-3.4 2-15 0-12.6-.1-13.2-2.5-15.5-3.3-3.4-8.3-3.4-11.6.1zM224.5 17.2c-2.6 3.1-2.7 3.4-2.3 15.4.3 11.2.5 12.6 2.5 14.6 3.3 3.3 8.9 3 11.9-.6 2.2-2.5 2.4-3.5 2.4-15.2 0-11.9-.1-12.6-2.5-14.9-3.6-3.7-8.6-3.4-12 .7z" fill="#461e96"/><path d="m148.4 30.7-63.1.3-.6 7.7c-.6 8.4-2.1 11.2-7.7 15-4.1 2.9-8.9 2.9-14.1.2-5.3-2.6-7.8-8.1-7.9-16.7V31H44c-9.1 0-11.8.4-15.5 2.1-5.4 2.5-12.9 10.5-14.7 15.7-1 3-1.3 21.8-1.3 93.7v90l2.3 4.7c3.3 6.6 11.1 13.4 17.6 15.3 4.6 1.3 20 1.5 120.2 1.3l114.9-.3 5.1-2.7c5.3-2.8 10.1-7.6 13.1-13.1 1.7-3 1.8-9.4 2.1-94.2.3-101.6.7-95.6-6.7-103.8-6-6.7-11.7-8.7-24.6-8.7h-11v7.5c0 5.9-.5 8-2.1 10.2-5.1 6.9-12.5 9-19.3 5.5-5.7-2.9-7.5-6.2-8.1-15.5-.4-7.3-.7-8.2-2.5-8.2-1.1 0-30.4.1-65.1.2zM272 129.4v55.5l-3.7 3c-6.9 5.7-13.3 7.5-27.3 7.7-15.9.4-15.9.4-15.7 14.2.1 11.2-1.9 19.4-5.9 24.1l-2.6 3.1h-89.4c-98.2 0-93.7.3-96.9-6-1.3-2.5-1.5-13-1.5-79.4V75l49.8-.2c27.3-.2 82-.4 121.5-.6L272 74v55.4zm-.5 98.3c-.3 1.9-2 4.4-4.1 6.2l-3.5 3.1h-41.2l6.4-5.7c3.5-3.1 14.5-13.7 24.4-23.5l18-17.8.3 17.3c.2 9.4 0 18.6-.3 20.4z" fill="#461e96"/><path d="M121 101.5V113h23V90h-23v11.5zM158.2 101.2l.3 11.3 11.8.3 11.7.3V90h-24.1l.3 11.2zM196 101.5V113h23V90h-23v11.5zM232.2 101.2l.3 11.3 11.8.3 11.7.3V90h-24.1l.3 11.2zM45 137.5V149h23v-23H45v11.5zM83 137.5v11.6l11.8-.3 11.7-.3.3-11.3.3-11.2H83v11.5zM121 137.5V149h23v-23h-23v11.5zM158.2 137.2l.3 11.3 11.8.3 11.7.3V126h-24.1l.3 11.2zM196 137.5V149h23v-23h-23v11.5zM232.2 137.2l.3 11.3 11.8.3 11.7.3V126h-24.1l.3 11.2zM45 173.5V185h23v-23H45v11.5zM83 173.5V185h24v-23H83v11.5zM121 173.5V185h23v-23h-23v11.5zM158 173.5V185h24v-23h-24v11.5zM196 173.5V185h23v-23h-23v11.5zM45 210v12h23v-24H45v12zM83.7 198.6c-.4.4-.7 5.8-.7 12.1v11.4l11.8-.3 11.7-.3v-23l-11.1-.3c-6-.1-11.3.1-11.7.4zM121 210v12h23v-24h-23v12zM158.4 199.3c-.2.7-.3 6-.2 11.8l.3 10.4h23l.3-11.8.3-11.7h-11.6c-8.6 0-11.7.3-12.1 1.3z" fill="#461e96"/></svg>